<svg version="1.0" id="Layer_1" xmlns="http://www.w3.org/2000/svg" xmlns:xlink="http://www.w3.org/1999/xlink" x="0px" y="0px"
	 viewBox="0 0 867.76 844.3" style="enable-background:new 0 0 867.76 844.3;" xml:space="preserve">
<style type="text/css">
	.st0{fill:#ACEA00;}
	.st1{fill:#2D2D2D;}
	.st2{fill:#FFFFFF;}
	.st3{fill:none;stroke:#2D2D2D;stroke-width:13;stroke-miterlimit:10;}
	.st4{fill:none;stroke:#2D2D2D;stroke-width:16;stroke-miterlimit:10;}
</style>
<path class="st2" d="M681.68,423.06c-3.27-91-54.06-169.88-128.3-212.59c-13.38-7.69-27.51-14.22-42.26-19.42
	c-26.64-9.4-55.3-14.51-85.15-14.51c-141.32,0-255.89,114.57-255.89,255.9c0,45.87,12.07,88.91,33.2,126.14
	c5.92,10.43,12.56,20.41,19.84,29.87c36.68,47.63,89.78,81.98,150.8,94.58c13.47,2.79,27.32,4.51,41.47,5.08
	c3.51,0.16,7.03,0.23,10.57,0.23c81.88,0,154.78-38.46,201.62-98.31c4.68-5.98,9.11-12.18,13.25-18.58
	c4.15-6.4,11.54-13.06,11.59-19.76c6.46-5.64,9.12-12.19,9.82-20.84c4.77-4.48,5.62-14.39,7.95-21.81
	c2.33-7.42,4.32-14.99,5.97-22.68c1.65-7.7,2.95-15.52,3.9-23.45c1.19-9.99,1.81-20.15,1.81-30.46
	C681.86,429.3,681.8,426.17,681.68,423.06z M643.97,440.63c-0.53,14.3-2.43,28.22-5.59,41.68v0.02
	c-22.57,96.42-109.09,168.25-212.4,168.25c-9.82,0-19.47-0.64-28.95-1.9c-15.23-2.01-29.96-5.61-44.03-10.61
	c-37.25-13.23-69.82-36.28-94.63-66.03c-7.69-9.2-14.62-19.05-20.73-29.46c-18.94-32.32-29.8-69.95-29.8-110.13
	c0-120.48,97.67-218.16,218.14-218.16c10.41,0,20.66,0.73,30.69,2.14c18.49,2.59,36.22,7.51,52.9,14.44
	c78.99,32.8,134.55,110.7,134.55,201.57C644.11,435.18,644.06,437.92,643.97,440.63z"/>
<path class="st2" d="M530.34,401.66c0,3.23-0.61,8.52-2.68,18.96c-0.27-2.31-3.85,9.7-7.77,17.43c-2.37,2.33-7.56,10.41-12.44,14.77
	s-10.47,8.08-16.71,10.98L258.36,572.04c-7.69-9.2-14.62-19.05-20.73-29.46l238.14-110.92c5.52-2.57,10-6.47,13.23-11.14
	c3.68-4.84,8.8-10.98,5.75-15.76c4.01-5.4,1.16-11.16-2.96-17.04c-1.03-5.16-7.19-10.8-12.43-14.07
	c-5.24-3.27-11.34-5.04-17.58-5.04c-4.67,0-9.41,1-13.94,3.09l-47.11,21.95c-34.3,15.97-75.06,1.11-91.03-33.19
	c-4.37-9.36-6.43-19.2-6.43-28.9c0-6.45,0.92-12.83,2.68-18.96s5.15-11.98,7.77-17.43c4.06-5.23,10.18-9.21,12.44-14.77
	c6.8-2.53,12.65-5.08,16.71-10.98c1.53,3.29,4.2,1.49,8.43-3.93c5.38,0.94,12.63-5.8,21.07-9.81c8.43-3.93,17.91-8.34,27.39-12.76
	c28.45-13.25,56.9-26.5,56.9-26.5c18.49,2.59,36.22,7.51,52.9,14.44c0,0-37.93,17.67-75.86,35.34c-9.48,4.42-18.96,8.83-27.85,12.98
	c-8.89,4.14-24.36,11.35-24.3,11.32c-10.97,5.11-18.07,8.42-17.19,8.01c-5.27,2.45-6.52,3.04-6.52,3.04
	c-2.76,1.29-6.38,4.13-13.23,11.14c2.73-1.05-2.72,7.24-5.75,15.77c2.1,1.26,0.5,11.29,2.96,17.04c2.8,6.02,7.19,10.8,12.43,14.07
	c5.24,3.27,11.34,5.04,17.57,5.04c4.67,0,9.43-1,13.96-3.11l47.1-21.94c20.58-9.58,43.49-8.07,61.97,2.08
	c6.16,3.38,11.83,7.73,16.76,12.94c4.93,5.21,10.86,17.8,12.31,18.16c2.96,9.08,4.84,17.18,4.85,14.32
	C530.02,395.78,530.34,399.23,530.34,401.66z"/>
<path class="st2" d="M643.97,440.63c-0.53,14.3-2.43,28.22-5.59,41.68v0.02l-262,122.03l20.65,44.32
	c-15.23-2.01-29.96-5.61-44.03-10.61l-23.69-50.87L643.97,440.63z"/>
</svg>
